<?xml version="1.0" encoding="UTF-8" standalone="no"?>
<svg
   xmlns:dc="http://purl.org/dc/elements/1.1/"
   xmlns:cc="http://creativecommons.org/ns#"
   xmlns:rdf="http://www.w3.org/1999/02/22-rdf-syntax-ns#"
   xmlns:svg="http://www.w3.org/2000/svg"
   xmlns="http://www.w3.org/2000/svg"
   xmlns:xlink="http://www.w3.org/1999/xlink"
   xmlns:sodipodi="http://sodipodi.sourceforge.net/DTD/sodipodi-0.dtd"
   xmlns:inkscape="http://www.inkscape.org/namespaces/inkscape"
   viewBox="0 0 448 512"
   version="1.1"
   id="svg4"
   sodipodi:docname="email-alizarin.svg"
   inkscape:version="0.92.4 (unknown)">
  <metadata
     id="metadata10">
    <rdf:RDF>
      <cc:Work
         rdf:about="">
        <dc:format>image/svg+xml</dc:format>
        <dc:type
           rdf:resource="http://purl.org/dc/dcmitype/StillImage" />
        <dc:title></dc:title>
      </cc:Work>
    </rdf:RDF>
  </metadata>
  <defs
     id="defs8">
    <clipPath
       clipPathUnits="userSpaceOnUse"
       id="clipPath4525">
      <use
         x="0"
         y="0"
         xlink:href="#g4521"
         id="use4527"
         width="100%"
         height="100%" />
    </clipPath>
  </defs>
  <sodipodi:namedview
     pagecolor="#ffffff"
     bordercolor="#666666"
     borderopacity="1"
     objecttolerance="10"
     gridtolerance="10"
     guidetolerance="10"
     inkscape:pageopacity="0"
     inkscape:pageshadow="2"
     inkscape:window-width="1920"
     inkscape:window-height="1025"
     id="namedview6"
     showgrid="false"
     inkscape:zoom="0.4609375"
     inkscape:cx="-30.915254"
     inkscape:cy="256"
     inkscape:window-x="1920"
     inkscape:window-y="27"
     inkscape:window-maximized="1"
     inkscape:current-layer="g4521" />
  <g
     id="g4521"
     inkscape:label="Clip">
    <path
       inkscape:connector-curvature="0"
       d="M 400,32 H 48 C 21.49,32 0,53.49 0,80 v 352 c 0,26.51 21.49,48 48,48 h 352 c 26.51,0 48,-21.49 48,-48 V 80 C 448,53.49 426.51,32 400,32 Z M 178.117,262.104 C 87.429,196.287 88.353,196.121 64,177.167 V 152 c 0,-13.255 10.745,-24 24,-24 h 272 c 13.255,0 24,10.745 24,24 v 25.167 c -24.371,18.969 -23.434,19.124 -114.117,84.938 -10.5,7.655 -31.392,26.12 -45.883,25.894 -14.503,0.218 -35.367,-18.227 -45.883,-25.895 z M 384,217.775 V 360 c 0,13.255 -10.745,24 -24,24 H 88 C 74.745,384 64,373.255 64,360 V 217.775 c 13.958,10.794 33.329,25.236 95.303,70.214 14.162,10.341 37.975,32.145 64.694,32.01 26.887,0.134 51.037,-22.041 64.72,-32.025 61.958,-44.965 81.325,-59.406 95.283,-70.199 z"
       id="path2"
       style="fill:#e74c3c;fill-opacity:1" />
  </g>
</svg>
